<svg width="19" height="18" viewBox="0 0 19 18" fill="none" xmlns="http://www.w3.org/2000/svg">
<g id="accept 4" clip-path="url(#clip0_140_563)">
<g id="Group">
<g id="Group_2">
<g id="x30 5 Accept">
<g id="Group_3">
<path id="Vector" d="M17.6386 5.15047C16.9038 3.59305 15.7402 2.28524 14.2742 1.36766C12.2351 0.0950025 9.81986 -0.309294 7.47845 0.232112C5.13704 0.770002 3.14368 2.19032 1.87103 4.22938C0.594856 6.26844 0.190559 8.68016 0.731965 11.0251C1.27337 13.3665 2.69368 15.3598 4.72923 16.6325C6.16361 17.529 7.80892 18.0036 9.4929 18.0036H9.60189C11.2788 17.9825 12.9101 17.4973 14.3234 16.6044C14.7347 16.3442 14.8542 15.8028 14.5941 15.3915C14.3339 14.9802 13.7925 14.8606 13.3812 15.1208C12.2456 15.8415 10.9308 16.2317 9.58079 16.2493C8.19564 16.2669 6.84212 15.8837 5.66087 15.1489C4.01908 14.1223 2.8765 12.5192 2.44408 10.6348C2.01165 8.75047 2.33509 6.80985 3.36165 5.16805C5.47806 1.7825 9.95697 0.748909 13.3425 2.86532C14.5238 3.6036 15.4589 4.65477 16.0495 5.90633C16.6261 7.12625 16.8511 8.47977 16.6999 9.81571C16.6472 10.2973 16.9917 10.7333 17.4769 10.786C17.9585 10.8388 18.3945 10.4942 18.4472 10.0091C18.6335 8.34617 18.3523 6.66571 17.6386 5.15047Z" fill="#949599"/>
</g>
</g>
</g>
</g>
</g>
<defs>
<clipPath id="clip0_140_563">
<rect width="18" height="18" fill="white" transform="translate(0.5)"/>
</clipPath>
</defs>
</svg>
