<svg width="19" height="19" viewBox="0 0 19 19" fill="none" xmlns="http://www.w3.org/2000/svg">
<g id="Frame" clip-path="url(#clip0_99_120)">
<g id="Group">
<path id="Vector" d="M9.5 19C14.7467 19 19 14.7467 19 9.5C19 4.25329 14.7467 0 9.5 0C4.25329 0 0 4.25329 0 9.5C0 14.7467 4.25329 19 9.5 19Z" fill="white" fill-opacity="0.4"/>
<path id="Vector_2" d="M12.2832 6.16016C12.2832 4.6255 11.0347 3.37695 9.5 3.37695C7.96534 3.37695 6.7168 4.6255 6.7168 6.16016C6.7168 7.69481 7.96534 8.94336 9.5 8.94336C11.0347 8.94336 12.2832 7.69481 12.2832 6.16016ZM9.5 8.94336C6.73762 8.94336 4.49023 11.1907 4.49023 13.9531V14.4748C4.49023 14.633 4.55755 14.7838 4.67541 14.8894C6.03131 16.1043 7.74473 16.7734 9.5 16.7734C11.2553 16.7734 12.9687 16.1043 14.3246 14.8894C14.3829 14.8372 14.4295 14.7733 14.4614 14.7018C14.4933 14.6304 14.5098 14.553 14.5098 14.4748V13.9531C14.5098 11.1907 12.2624 8.94336 9.5 8.94336Z" fill="white"/>
</g>
<circle id="Ellipse 225" cx="2.96875" cy="2.96875" r="2.96875" transform="matrix(-1 0 0 1 18.9375 0)" fill="#02C60A"/>
</g>
<defs>
<clipPath id="clip0_99_120">
<rect width="19" height="19" fill="white"/>
</clipPath>
</defs>
</svg>
