<svg width="25" height="25" viewBox="0 0 25 25" fill="none" xmlns="http://www.w3.org/2000/svg">
<path d="M12.5 25C19.4036 25 25 19.4036 25 12.5C25 5.59644 19.4036 0 12.5 0C5.59644 0 0 5.59644 0 12.5C0 19.4036 5.59644 25 12.5 25Z" fill="#EB047C"/>
<path d="M16.1621 8.10547C16.1621 6.08618 14.5193 4.44336 12.5 4.44336C10.4807 4.44336 8.83789 6.08618 8.83789 8.10547C8.83789 10.1248 10.4807 11.7676 12.5 11.7676C14.5193 11.7676 16.1621 10.1248 16.1621 8.10547ZM12.5 11.7676C8.86528 11.7676 5.9082 14.7247 5.9082 18.3594V19.0458C5.9082 19.254 5.99678 19.4523 6.15186 19.5913C7.93594 21.1899 10.1904 22.0703 12.5 22.0703C14.8096 22.0703 17.0641 21.1899 18.8481 19.5913C18.9248 19.5226 18.9861 19.4385 19.0281 19.3445C19.0701 19.2505 19.0918 19.1487 19.0918 19.0458V18.3594C19.0918 14.7247 16.1347 11.7676 12.5 11.7676Z" fill="white"/>
</svg>
