<svg width="15" height="15" viewBox="0 0 15 15" fill="none" xmlns="http://www.w3.org/2000/svg">
<path d="M7.5 0C3.36469 0 0 3.36469 0 7.5C0 11.6353 3.36469 15 7.5 15C11.6353 15 15 11.6353 15 7.5C15 3.36469 11.6353 0 7.5 0ZM1.875 7.5C1.875 4.39831 4.39831 1.875 7.5 1.875C8.71307 1.875 9.83438 2.26456 10.754 2.92031L2.92031 10.754C2.26456 9.83438 1.875 8.7126 1.875 7.5ZM7.5 13.125C6.28693 13.125 5.16562 12.7354 4.246 12.0797L12.0797 4.246C12.7354 5.16562 13.125 6.2874 13.125 7.5C13.125 10.6017 10.6017 13.125 7.5 13.125Z" fill="white"/>
</svg>
