<svg width="152" height="152" viewBox="0 0 152 152" fill="none" xmlns="http://www.w3.org/2000/svg">
<rect width="152" height="152" rx="20" fill="#9478B7"/>
<path fill-rule="evenodd" clip-rule="evenodd" d="M76 88.3833C77.9314 88.3833 79.8195 87.7977 81.4254 86.7006C83.0313 85.6035 84.2829 84.0442 85.022 82.2199C85.7611 80.3955 85.9544 78.3881 85.5776 76.4514C85.2007 74.5147 84.2706 72.7357 82.9048 71.3395C81.5391 69.9432 79.799 68.9924 77.9047 68.6072C76.0103 68.2221 74.0468 68.4198 72.2624 69.1756C70.4781 69.9313 68.953 71.2111 67.88 72.853C66.807 74.4949 66.2343 76.4252 66.2344 78.3999C66.2375 81.0468 67.2674 83.5844 69.0981 85.456C70.9289 87.3276 73.411 88.3804 76 88.3833ZM76 65.031C78.5861 65.0309 81.1142 65.8149 83.2646 67.2837C85.4149 68.7526 87.091 70.8404 88.0807 73.2831C89.0705 75.7258 89.3295 78.4138 88.8251 81.007C88.3206 83.6002 87.0754 85.9823 85.2467 87.852C83.4181 89.7216 81.0883 90.9949 78.5518 91.5108C76.0154 92.0267 73.3863 91.7621 70.997 90.7504C68.6076 89.7386 66.5654 88.0252 65.1286 85.8269C63.6917 83.6285 62.9247 81.0439 62.9247 78.3999C62.9285 74.8556 64.3073 71.4576 66.7586 68.9513C69.2098 66.4451 72.5333 65.0352 76 65.031ZM100 94.673C99.9996 95.29 99.7597 95.8816 99.333 96.3179C98.9062 96.7542 98.3276 96.9996 97.7241 97H54.2761C53.6726 96.9995 53.094 96.7541 52.6672 96.3179C52.2405 95.8816 52.0005 95.29 52 94.673V65.2006C52.0005 64.5836 52.2404 63.992 52.6671 63.5556C53.0938 63.1193 53.6724 62.874 54.2759 62.8734H65.3086C65.476 62.8734 65.6396 62.8215 65.7776 62.7244C65.9156 62.6274 66.0215 62.4898 66.0813 62.3298L68.451 56H83.5488L85.919 62.3298C85.9785 62.4899 86.0843 62.6276 86.2223 62.7247C86.3602 62.8218 86.5238 62.8737 86.6913 62.8734H97.7239C98.3274 62.874 98.906 63.1194 99.3327 63.5557C99.7593 63.992 99.9993 64.5836 99.9999 65.2006L100 94.673Z" fill="white"/>
</svg>
