<svg width="299" height="250" viewBox="0 0 299 250" fill="none" xmlns="http://www.w3.org/2000/svg">
<rect width="299" height="250" rx="20" fill="#9478B7" fill-opacity="0.47"/>
<path fill-rule="evenodd" clip-rule="evenodd" d="M149.5 145.368C153.299 145.367 157.013 144.404 160.172 142.6C163.331 140.796 165.793 138.231 167.247 135.23C168.701 132.23 169.081 128.928 168.34 125.743C167.599 122.557 165.769 119.631 163.083 117.335C160.396 115.038 156.973 113.475 153.247 112.841C149.52 112.208 145.658 112.533 142.148 113.776C138.638 115.019 135.638 117.124 133.527 119.824C131.416 122.525 130.29 125.7 130.29 128.947C130.296 133.301 132.322 137.475 135.923 140.553C139.525 143.631 144.407 145.363 149.5 145.368ZM149.5 106.959C154.587 106.959 159.56 108.248 163.79 110.664C168.02 113.08 171.317 116.514 173.264 120.532C175.211 124.549 175.721 128.97 174.728 133.235C173.736 137.501 171.286 141.418 167.689 144.494C164.092 147.569 159.509 149.663 154.52 150.511C149.53 151.36 144.359 150.925 139.659 149.261C134.959 147.597 130.941 144.779 128.115 141.163C125.288 137.547 123.78 133.296 123.779 128.947C123.787 123.118 126.499 117.529 131.321 113.407C136.143 109.285 142.681 106.966 149.5 106.959ZM196.711 155.712C196.71 156.727 196.238 157.7 195.398 158.418C194.559 159.135 193.421 159.539 192.234 159.54H106.767C105.58 159.539 104.441 159.135 103.602 158.418C102.763 157.7 102.291 156.727 102.29 155.712V107.238C102.29 106.223 102.762 105.25 103.602 104.533C104.441 103.815 105.579 103.411 106.767 103.41H128.469C128.798 103.41 129.12 103.325 129.391 103.165C129.663 103.006 129.871 102.779 129.989 102.516L134.65 92.1055H164.349L169.012 102.516C169.129 102.78 169.337 103.006 169.608 103.166C169.88 103.326 170.202 103.411 170.531 103.41H192.233C193.42 103.411 194.559 103.815 195.398 104.533C196.237 105.25 196.709 106.223 196.71 107.238L196.711 155.712Z" fill="white"/>
</svg>
