<svg width="24" height="23" viewBox="0 0 24 23" fill="none" xmlns="http://www.w3.org/2000/svg">
<path d="M1 9.10449V20.4825C1 20.8849 1.15985 21.2708 1.44439 21.5553C1.72893 21.8398 2.11484 21.9996 2.51724 21.9996H21.4828C21.8852 21.9996 22.2711 21.8398 22.5556 21.5553C22.8401 21.2708 23 20.8849 23 20.4825V9.10449" stroke="#5C2D91" stroke-linecap="round" stroke-linejoin="round"/>
<path d="M5.36207 7.12109C3.83692 7.5868 2.3726 8.2323 1 9.04398L11.139 16.0339C11.3922 16.2084 11.6925 16.3019 12 16.3019C12.3075 16.3019 12.6078 16.2084 12.861 16.0339L23 9.04398C21.6274 8.2323 20.1631 7.5868 18.6379 7.12109" stroke="#5C2D91" stroke-linecap="round" stroke-linejoin="round"/>
<path d="M5.36206 12.0519V2.1378C5.36206 1.83604 5.48195 1.54663 5.69535 1.33326C5.90876 1.11988 6.19819 1 6.49999 1H17.5C17.8018 1 18.0912 1.11988 18.3046 1.33326C18.518 1.54663 18.6379 1.83604 18.6379 2.1378V12.0481L12.861 16.0342C12.6078 16.2087 12.3075 16.3021 12 16.3021C11.6925 16.3021 11.3922 16.2087 11.139 16.0342L5.36585 12.0519" stroke="#5C2D91" stroke-linecap="round" stroke-linejoin="round"/>
<path d="M15.6034 4.37158H8.39648" stroke="#5C2D91" stroke-linecap="round" stroke-linejoin="round"/>
<path d="M11.9999 10.2163H8.39648" stroke="#5C2D91" stroke-linecap="round" stroke-linejoin="round"/>
<path d="M15.6034 7.29541H8.39648" stroke="#5C2D91" stroke-linecap="round" stroke-linejoin="round"/>
<path d="M9.41305 14.8506L1.48926 21.6016" stroke="#5C2D91" stroke-linecap="round" stroke-linejoin="round"/>
<path d="M14.5679 14.8506L22.5144 21.6016" stroke="#5C2D91" stroke-linecap="round" stroke-linejoin="round"/>
</svg>
