<svg width="31" height="19" viewBox="0 0 31 19" fill="none" xmlns="http://www.w3.org/2000/svg">
<path d="M15.5768 0.723633C9.7188 0.723633 4.40646 3.9286 0.486484 9.13433C0.166615 9.56082 0.166615 10.1567 0.486484 10.5831C4.40646 15.7951 9.7188 19.0001 15.5768 19.0001C21.4348 19.0001 26.7472 15.7951 30.6671 10.5894C30.987 10.1629 30.987 9.56709 30.6671 9.1406C26.7472 3.9286 21.4348 0.723633 15.5768 0.723633ZM15.997 16.2969C12.1084 16.5415 8.89718 13.3365 9.14178 9.44165C9.34249 6.23041 11.9453 3.62755 15.1566 3.42685C19.0452 3.18224 22.2564 6.38721 22.0118 10.2821C21.8049 13.4871 19.202 16.0899 15.997 16.2969ZM15.8026 13.324C13.7078 13.4557 11.9767 11.7309 12.1147 9.63608C12.2213 7.90502 13.6262 6.50638 15.3573 6.39348C17.4521 6.26177 19.1832 7.98656 19.0452 10.0814C18.9323 11.8187 17.5274 13.2174 15.8026 13.324Z" fill="#C1C1C1"/>
</svg>
