<svg width="39" height="40" viewBox="0 0 39 40" fill="none" xmlns="http://www.w3.org/2000/svg">
<path d="M28.2138 17.9375H26.3856V13.9375C26.3856 10.0625 23.2778 6.875 19.4997 6.875C15.7216 6.875 12.6138 10.0625 12.6138 13.9375V17.9375H10.7856V13.9375C10.7856 9 14.6856 5 19.4997 5C24.3138 5 28.2138 9 28.2138 13.9375V17.9375Z" fill="#5C2D91"/>
<path d="M27.2999 34.9375H11.6999C10.1155 34.9375 8.7749 33.5625 8.7749 31.9375V19.9375C8.7749 18.3125 10.1155 16.9375 11.6999 16.9375H27.2999C28.8843 16.9375 30.2249 18.3125 30.2249 19.9375V31.9375C30.2249 33.625 28.8843 34.9375 27.2999 34.9375ZM11.6999 18.9375C11.1515 18.9375 10.7249 19.375 10.7249 19.9375V31.9375C10.7249 32.5 11.1515 32.9375 11.6999 32.9375H27.2999C27.8483 32.9375 28.2749 32.5 28.2749 31.9375V19.9375C28.2749 19.375 27.8483 18.9375 27.2999 18.9375H11.6999Z" fill="#5C2D91"/>
<path d="M21.4498 22.9375C21.4498 24.0625 20.5967 24.9375 19.4998 24.9375C18.4029 24.9375 17.5498 24.0625 17.5498 22.9375C17.5498 21.8125 18.4029 20.9375 19.4998 20.9375C20.5967 20.9375 21.4498 21.875 21.4498 22.9375Z" fill="#5C2D91"/>
<path d="M19.9876 22.9375H19.0126L18.0376 28.9375H20.9626L19.9876 22.9375Z" fill="#5C2D91"/>
</svg>
