<svg width="36" height="35" viewBox="0 0 36 35" fill="none" xmlns="http://www.w3.org/2000/svg">
<path d="M5.77379 22.6922C6.76987 23.5826 7.89635 24.2886 9.10828 24.8193L15.4692 20.826C16.1176 20.4229 16.8831 20.2505 17.6416 20.3366C18.4002 20.4227 19.1076 20.7623 19.6491 21.3004L21.7897 23.441C23.3998 22.2583 24.7104 20.7149 25.6163 18.9343C26.5222 17.1537 26.9982 15.1857 27.0062 13.1879C27.0062 6.16143 21.2905 0.445801 14.264 0.445801C7.23755 0.445801 1.52417 6.16143 1.52417 13.1879C1.52391 14.982 1.90229 16.7559 2.63459 18.3936C3.36688 20.0314 4.43659 21.4962 5.77379 22.6922ZM14.8351 14.3122H13.6952C12.9004 14.3107 12.135 14.0119 11.5495 13.4745C10.9639 12.9371 10.6008 12.2 10.5314 11.4082C10.4621 10.6165 10.6915 9.82748 11.1747 9.19644C11.6578 8.5654 12.3596 8.13803 13.142 7.99843V6.81798C13.142 6.51981 13.2605 6.23386 13.4713 6.02303C13.6822 5.81219 13.9681 5.69374 14.2663 5.69374C14.5645 5.69374 14.8504 5.81219 15.0612 6.02303C15.2721 6.23386 15.3905 6.51981 15.3905 6.81798V7.94222H16.888C17.1862 7.94222 17.4721 8.06067 17.683 8.2715C17.8938 8.48234 18.0122 8.76829 18.0122 9.06646C18.0122 9.36462 17.8938 9.65058 17.683 9.86141C17.4721 10.0723 17.1862 10.1907 16.888 10.1907H13.6952C13.4468 10.1907 13.2086 10.2894 13.033 10.465C12.8573 10.6406 12.7587 10.8788 12.7587 11.1272C12.7587 11.3756 12.8573 11.6138 13.033 11.7894C13.2086 11.965 13.4468 12.0637 13.6952 12.0637H14.8351C15.6299 12.0651 16.3954 12.3639 16.9809 12.9013C17.5664 13.4388 17.9295 14.1759 17.9989 14.9676C18.0683 15.7593 17.8388 16.5483 17.3557 17.1794C16.8725 17.8104 16.1707 18.2378 15.3883 18.3774V19.5578C15.3883 19.856 15.2698 20.142 15.059 20.3528C14.8482 20.5636 14.5622 20.6821 14.264 20.6821C13.9659 20.6821 13.6799 20.5636 13.4691 20.3528C13.2582 20.142 13.1398 19.856 13.1398 19.5578V18.4336H11.6401C11.3419 18.4336 11.0559 18.3152 10.8451 18.1043C10.6343 17.8935 10.5158 17.6075 10.5158 17.3094C10.5158 17.0112 10.6343 16.7253 10.8451 16.5144C11.0559 16.3036 11.3419 16.1851 11.6401 16.1851H14.8329C15.079 16.1845 15.3149 16.0865 15.4889 15.9125C15.6629 15.7385 15.7609 15.5026 15.7615 15.2565C15.7633 15.1335 15.7407 15.0114 15.695 14.8972C15.6493 14.783 15.5814 14.679 15.4953 14.5911C15.4091 14.5033 15.3064 14.4335 15.1931 14.3856C15.0798 14.3377 14.9582 14.3127 14.8351 14.3122Z" fill="#26C6DA"/>
<path d="M1.52407 34.924C1.19864 34.9227 0.88244 34.8156 0.623074 34.6191C0.363708 34.4225 0.175206 34.147 0.0859344 33.8341C-0.00333706 33.5211 0.0114538 33.1876 0.128081 32.8838C0.244708 32.58 0.45686 32.3222 0.73261 32.1494L16.4719 22.4067C16.7591 22.2291 17.0978 22.1535 17.4332 22.1923C17.7686 22.2311 18.0811 22.3819 18.3202 22.6203L23.2556 27.5558L31.9392 18.8721C32.2256 18.6182 32.5982 18.4831 32.9808 18.4946C33.3634 18.506 33.7272 18.6632 33.9978 18.9338C34.2685 19.2045 34.4256 19.5683 34.4371 19.9509C34.4486 20.3335 34.3135 20.7061 34.0595 20.9925L24.3169 30.7351C24.0354 31.0156 23.6541 31.1731 23.2567 31.1731C22.8593 31.1731 22.4781 31.0156 22.1966 30.7351L17.0386 25.5793L2.30879 34.6969C2.07392 34.8452 1.80185 34.9239 1.52407 34.924Z" fill="#8CE1EB"/>
<path d="M34.5001 25.9299C34.103 25.9298 33.7221 25.7721 33.4411 25.4915L27.4444 19.4948C27.2353 19.2851 27.0929 19.0181 27.0353 18.7276C26.9776 18.437 27.0073 18.1359 27.1206 17.8622C27.2339 17.5885 27.4256 17.3545 27.6717 17.1897C27.9179 17.0249 28.2073 16.9366 28.5035 16.936H34.5001C35.3276 16.936 35.9999 17.6083 35.9999 18.4358V24.4302C36.0002 24.6272 35.9616 24.8224 35.8863 25.0045C35.811 25.1866 35.7006 25.352 35.5613 25.4913C35.4219 25.6307 35.2565 25.7411 35.0744 25.8164C34.8923 25.8916 34.6972 25.9302 34.5001 25.9299Z" fill="#8CE1EB"/>
</svg>
