<svg width="32" height="23" viewBox="0 0 32 23" fill="none" xmlns="http://www.w3.org/2000/svg">
<path d="M25.6884 20.513L6.0789 0.904097L6.07471 0.899307C5.96854 0.794007 5.84268 0.710649 5.7043 0.653993C5.56592 0.597336 5.41773 0.56849 5.2682 0.569101C5.11868 0.569713 4.97073 0.599771 4.83282 0.657558C4.69491 0.715345 4.56973 0.799729 4.46443 0.905894C4.35913 1.01206 4.27578 1.13792 4.21912 1.2763C4.16246 1.41468 4.13362 1.56287 4.13423 1.71239C4.13546 2.01438 4.25661 2.3035 4.47102 2.51617L6.18789 4.23303C4.1058 5.65901 2.31363 7.46764 0.906742 9.56268C0.676997 9.90189 0.554199 10.3022 0.554199 10.7119C0.554199 11.1215 0.676997 11.5218 0.906742 11.861C4.49797 17.1763 10.1911 20.2903 15.8843 20.2513C17.7284 20.258 19.5602 19.951 21.3013 19.3435L24.0805 22.1227C24.2947 22.3299 24.5815 22.4449 24.8795 22.4428C25.1775 22.4408 25.4628 22.322 25.6741 22.1118C25.8853 21.9017 26.0058 21.6171 26.0095 21.3192C26.0132 21.0212 25.8998 20.7337 25.6938 20.5184L25.6884 20.513ZM15.8843 17.1607C14.8056 17.1603 13.7443 16.8896 12.7973 16.3733C11.8502 15.857 11.0477 15.1116 10.463 14.2052C9.87826 13.2988 9.53003 12.2603 9.45011 11.1847C9.3702 10.109 9.56113 9.03048 10.0055 8.04763L11.799 9.84114C11.6545 10.5219 11.6824 11.228 11.8802 11.8952C12.078 12.5624 12.4393 13.1696 12.9314 13.6617C13.4235 14.1538 14.0307 14.5152 14.6979 14.7129C15.3652 14.9107 16.0712 14.9386 16.752 14.7941L18.5455 16.5876C17.7096 16.9667 16.8021 17.1621 15.8843 17.1607ZM30.8618 9.55969C27.2705 4.24142 21.5774 1.12746 15.8843 1.16639C14.0402 1.15971 12.2083 1.4667 10.4672 2.07422L13.2218 4.82888C14.4172 4.28794 15.749 4.12414 17.0397 4.35931C18.3305 4.59447 19.519 5.21744 20.4467 6.14519C21.3745 7.07294 21.9974 8.26139 22.2326 9.55218C22.4678 10.843 22.304 12.1748 21.763 13.3701L25.58 17.1871C27.6625 15.7613 29.4549 13.9527 30.8618 11.8574C31.0914 11.5183 31.2141 11.1181 31.2141 10.7086C31.2141 10.299 31.0914 9.89883 30.8618 9.55969Z" fill="#C1C1C1"/>
<path d="M15.8838 6.53247C15.5922 6.53251 15.3014 6.56301 15.0161 6.62349L19.9691 11.5759C20.0982 10.9674 20.0898 10.3378 19.9445 9.73295C19.7992 9.12813 19.5206 8.56342 19.129 8.08007C18.7375 7.59672 18.2429 7.20693 17.6815 6.93918C17.12 6.67142 16.5059 6.53247 15.8838 6.53247Z" fill="#C1C1C1"/>
</svg>
