<svg width="24" height="24" viewBox="0 0 24 24" fill="none" xmlns="http://www.w3.org/2000/svg">
<path d="M17.5581 22.9771C17.2315 22.9771 16.8763 22.8796 16.5157 22.6848L11.6366 20.0428L8.63976 21.666C8.29597 21.8534 7.86976 21.7163 7.68813 21.362C7.50689 21.0078 7.63929 20.5691 7.98347 20.3829L11.3084 18.5821C11.5137 18.471 11.7591 18.471 11.9644 18.5821L17.1708 21.4013C17.4147 21.5329 17.5562 21.5353 17.5868 21.5258C17.5757 21.5207 17.6173 21.3809 17.5703 21.1001L16.5767 15.1349C16.5371 14.8993 16.6134 14.6597 16.779 14.4928L20.9888 10.2695C21.1872 10.0704 21.2342 9.93174 21.2349 9.89914C21.2246 9.90856 21.1101 9.82491 20.835 9.78367L15.0177 8.91293C14.7883 8.87837 14.5899 8.7303 14.4873 8.51625L12.8126 5.0231C12.6405 4.66373 12.7836 4.22934 13.1323 4.05182C13.4819 3.87508 13.9039 4.02236 14.076 4.38095L15.587 7.53201L21.038 8.34776C21.8294 8.46716 22.3907 8.87562 22.578 9.46907C22.765 10.0629 22.5445 10.733 21.9721 11.3072L18.0275 15.2649L18.9589 20.8546C19.0936 21.6653 18.889 22.3404 18.3987 22.7076C18.1587 22.8871 17.8718 22.9771 17.5581 22.9771Z" fill="#fff"/>
<path d="M5.25516 23C4.93142 23 4.6349 22.9088 4.38648 22.7267C3.87939 22.3547 3.66804 21.6699 3.80684 20.8481L4.77015 15.1779L0.694116 11.1644C0.102643 10.5821 -0.126059 9.90246 0.0675492 9.30014C0.260763 8.69783 0.840801 8.28314 1.659 8.16244L7.29337 7.33505L9.81423 2.17634C10.179 1.42863 10.748 1 11.3745 1C12.0015 1.0004 12.5705 1.42943 12.936 2.17754C13.1135 2.54164 12.9656 2.98262 12.6052 3.16228C12.2448 3.34233 11.8083 3.19295 11.63 2.82806C11.5035 2.56952 11.3864 2.47949 11.3552 2.46874C11.3623 2.47949 11.2452 2.56912 11.1186 2.82726L8.4286 8.33254C8.32253 8.54964 8.11749 8.69982 7.88051 8.73488L1.86878 9.61803C1.58527 9.65946 1.46421 9.74511 1.4441 9.7718C1.45041 9.77538 1.50443 9.90883 1.71027 10.1112L6.06074 14.3943C6.23227 14.5636 6.31074 14.8066 6.27012 15.0456L5.24214 21.0963C5.19404 21.3803 5.23741 21.5225 5.25634 21.55C5.25752 21.5376 5.40421 21.5348 5.65657 21.401C6.01224 21.2122 6.45269 21.3504 6.6396 21.7105C6.8265 22.0698 6.68928 22.5148 6.33321 22.7032C5.96019 22.9012 5.59308 23 5.25516 23Z" fill="#FFf"/>
</svg>
