<svg width="38" height="37" viewBox="0 0 38 37" fill="none" xmlns="http://www.w3.org/2000/svg">
<g clip-path="url(#clip0_1_663)">
<path d="M18.5 37C28.7173 37 37 28.7173 37 18.5C37 8.28273 28.7173 0 18.5 0C8.28273 0 0 8.28273 0 18.5C0 28.7173 8.28273 37 18.5 37Z" fill="white"/>
<path d="M23.9199 11.9961C23.9199 9.00755 21.4885 6.57617 18.5 6.57617C15.5115 6.57617 13.0801 9.00755 13.0801 11.9961C13.0801 14.9846 15.5115 17.416 18.5 17.416C21.4885 17.416 23.9199 14.9846 23.9199 11.9961ZM18.5 17.416C13.1206 17.416 8.74414 21.7925 8.74414 27.1719V28.1878C8.74414 28.4959 8.87523 28.7895 9.10475 28.9951C11.7452 31.361 15.0818 32.6641 18.5 32.6641C21.9182 32.6641 25.2549 31.361 27.8953 28.9951C28.0087 28.8934 28.0995 28.769 28.1616 28.6299C28.2238 28.4908 28.2559 28.3401 28.2559 28.1878V27.1719C28.2559 21.7925 23.8794 17.416 18.5 17.416Z" fill="#26C6DA"/>
</g>
<circle cx="5.5" cy="5.5" r="5.5" transform="matrix(-1 0 0 1 38 0)" fill="#02C60A"/>
<defs>
<clipPath id="clip0_1_663">
<rect width="37" height="37" fill="white"/>
</clipPath>
</defs>
</svg>
