<svg width="18" height="18" viewBox="0 0 18 18" fill="none" xmlns="http://www.w3.org/2000/svg">
<g clip-path="url(#clip0_337_4639)">
<path d="M9.79665 6.52142C9.56383 6.52142 9.37511 6.71015 9.37511 6.94297V14.9102C9.37511 15.1429 9.56383 15.3317 9.79665 15.3317C10.0295 15.3317 10.2182 15.1429 10.2182 14.9102V6.94297C10.2182 6.71015 10.0295 6.52142 9.79665 6.52142ZM4.82242 6.52142C4.5896 6.52142 4.40088 6.71015 4.40088 6.94297V14.9102C4.40088 15.1429 4.5896 15.3317 4.82242 15.3317C5.05528 15.3317 5.24397 15.1429 5.24397 14.9102V6.94297C5.24397 6.71015 5.05528 6.52142 4.82242 6.52142Z" fill="white"/>
<path d="M1.19676 5.35856V15.7445C1.19676 16.3584 1.42186 16.9349 1.81508 17.3485C2.0087 17.5537 2.24212 17.7173 2.50109 17.8293C2.76005 17.9413 3.03912 17.9993 3.32126 17.9998H11.2971C11.5792 17.9993 11.8583 17.9413 12.1172 17.8293C12.3762 17.7174 12.6096 17.5538 12.8032 17.3485C13.1965 16.9349 13.4216 16.3584 13.4216 15.7445V5.35856C14.2032 5.15108 14.7098 4.39592 14.6052 3.59385C14.5005 2.7919 13.8173 2.19204 13.0084 2.19187H10.8501V1.66494C10.8513 1.44559 10.809 1.22817 10.7255 1.02533C10.642 0.82248 10.519 0.638243 10.3637 0.483311C10.2084 0.328394 10.0238 0.20588 9.82075 0.122884C9.61768 0.0398887 9.40014 -0.00193541 9.18077 -0.00015898H5.43758C5.2182 -0.00194101 5.00066 0.0398804 4.79758 0.122876C4.5945 0.205872 4.40993 0.328389 4.2546 0.483311C4.09931 0.638243 3.97634 0.82248 3.89284 1.02533C3.80934 1.22817 3.76697 1.44559 3.76818 1.66494V2.19187H1.60996C0.801096 2.19204 0.117899 2.7919 0.0131447 3.59385C-0.0913983 4.39592 0.415088 5.15108 1.19676 5.35856ZM11.2971 17.1567H3.3213C2.60054 17.1567 2.03985 16.5375 2.03985 15.7445V5.39561H12.5785V15.7445C12.5785 16.5376 12.0178 17.1567 11.2971 17.1567ZM4.61127 1.66494C4.60989 1.55626 4.63036 1.44841 4.67146 1.34779C4.71257 1.24718 4.77346 1.15584 4.85054 1.07921C4.92759 1.00253 5.01925 0.942107 5.12009 0.90152C5.22093 0.860934 5.3289 0.84101 5.43758 0.84293H9.18077C9.28946 0.84101 9.39742 0.860934 9.49826 0.90152C9.5991 0.942107 9.69076 1.00253 9.76782 1.07921C9.8449 1.15583 9.90579 1.24717 9.94689 1.34779C9.98798 1.44841 10.0084 1.55626 10.007 1.66494V2.19187H4.61127V1.66494ZM1.60996 3.03496H13.0085C13.4275 3.03496 13.7673 3.37469 13.7673 3.79374C13.7673 4.2128 13.4275 4.55252 13.0085 4.55252H1.60991C1.19086 4.55252 0.851133 4.2128 0.851133 3.79374C0.851133 3.37469 1.1909 3.03496 1.60996 3.03496Z" fill="white"/>
<path d="M7.30948 6.52142C7.07667 6.52142 6.88794 6.71015 6.88794 6.94297V14.9102C6.88794 15.1429 7.07667 15.3317 7.30948 15.3317C7.54235 15.3317 7.73103 15.1429 7.73103 14.9102V6.94297C7.73103 6.71015 7.54235 6.52142 7.30948 6.52142Z" fill="white"/>
</g>
<defs>
<clipPath id="clip0_337_4639">
<rect width="18" height="18" fill="white"/>
</clipPath>
</defs>
</svg>
