<svg width="18" height="21" viewBox="0 0 18 21" fill="none" xmlns="http://www.w3.org/2000/svg">
<path fill-rule="evenodd" clip-rule="evenodd" d="M1 9.15507C1.01535 4.63585 4.69136 0.984742 9.21058 1.00005C13.7298 1.01545 17.3809 4.69145 17.3656 9.21067V9.30334C17.31 12.241 15.6697 14.9562 13.6587 17.0784C12.5087 18.2726 11.2244 19.3299 9.83147 20.2292C9.45901 20.5513 8.90654 20.5513 8.53408 20.2292C6.45756 18.8776 4.63506 17.1711 3.14995 15.1879C1.8263 13.4585 1.07478 11.3594 1 9.18287V9.15507Z" stroke="#5C2D91" stroke-linecap="round" stroke-linejoin="round"/>
<path d="M9.18227 11.9354C10.6308 11.9354 11.805 10.7611 11.805 9.31265C11.805 7.86417 10.6308 6.68994 9.18227 6.68994C7.7338 6.68994 6.55957 7.86417 6.55957 9.31265C6.55957 10.7611 7.7338 11.9354 9.18227 11.9354Z" stroke="#5C2D91" stroke-linecap="round" stroke-linejoin="round"/>
</svg>
