<svg width="18" height="18" viewBox="0 0 18 18" fill="none" xmlns="http://www.w3.org/2000/svg">
<g clip-path="url(#clip0_337_4651)">
<path d="M9.8249 0.75C8.0112 0.758827 6.25167 1.36907 4.82197 2.48511C3.39228 3.60115 2.3732 5.15994 1.92439 6.91725L1.37539 6.087C1.32342 6.00008 1.25438 5.92458 1.17244 5.86507C1.0905 5.80555 0.997349 5.76325 0.898614 5.74071C0.799878 5.71817 0.697601 5.71586 0.597949 5.73392C0.498296 5.75198 0.403334 5.79003 0.318788 5.84579C0.234242 5.90154 0.161864 5.97384 0.106019 6.05833C0.0501733 6.14282 0.0120176 6.23774 -0.00614759 6.33737C-0.0243128 6.437 -0.0221111 6.53928 0.000324624 6.63804C0.0227604 6.7368 0.0649654 6.82999 0.124395 6.912L1.77439 9.4125C1.88901 9.57288 2.05799 9.68616 2.24989 9.73125C2.44585 9.77012 2.64923 9.73111 2.8169 9.6225L5.29189 7.95525C5.37723 7.90196 5.45097 7.83205 5.50873 7.74967C5.56649 7.66729 5.60708 7.57414 5.62809 7.47575C5.64911 7.37736 5.65011 7.27575 5.63104 7.17697C5.61198 7.07818 5.57323 6.98424 5.51711 6.90074C5.46099 6.81724 5.38864 6.74589 5.30438 6.69092C5.22011 6.63596 5.12565 6.59851 5.02661 6.58081C4.92757 6.5631 4.82598 6.56551 4.72789 6.58787C4.6298 6.61024 4.53722 6.65211 4.45564 6.711L3.32989 7.47C3.62951 6.25379 4.26494 5.14629 5.16371 4.27385C6.06247 3.40141 7.18837 2.79917 8.41295 2.53583C9.63752 2.2725 10.9115 2.35868 12.0894 2.78454C13.2674 3.2104 14.3019 3.9588 15.075 4.94433C15.848 5.92987 16.3285 7.11286 16.4616 8.35834C16.5947 9.60382 16.375 10.8616 15.8276 11.9883C15.2802 13.1149 14.4272 14.065 13.3658 14.7301C12.3044 15.3952 11.0775 15.7486 9.8249 15.75C8.75115 15.7471 7.69398 15.485 6.74326 14.9859C5.79253 14.4869 4.97637 13.7656 4.36414 12.8835C4.30931 12.7993 4.23812 12.727 4.1548 12.6708C4.07148 12.6147 3.97773 12.5758 3.87911 12.5566C3.78049 12.5374 3.67901 12.5382 3.5807 12.559C3.48239 12.5797 3.38926 12.62 3.30683 12.6775C3.2244 12.7349 3.15435 12.8084 3.10085 12.8934C3.04734 12.9785 3.01147 13.0734 2.99537 13.1726C2.97926 13.2717 2.98324 13.3731 3.00708 13.4707C3.03092 13.5683 3.07413 13.6602 3.13414 13.7408C4.12944 15.1756 5.55877 16.2534 7.21205 16.8157C8.86534 17.3779 10.6554 17.395 12.3191 16.8645C13.9828 16.3339 15.4325 15.2836 16.455 13.868C17.4776 12.4524 18.019 10.7462 17.9999 9C18.0073 6.82268 17.1507 4.73133 15.6182 3.18471C14.0856 1.6381 12.0022 0.7625 9.8249 0.75Z" fill="white"/>
<path d="M9.75 4.46249C9.55109 4.46249 9.36032 4.54151 9.21967 4.68216C9.07902 4.82282 9 5.01358 9 5.21249V8.99999C9.00319 9.19825 9.08177 9.38785 9.21975 9.53024L11.4698 11.8005C11.6109 11.9395 11.8008 12.0178 11.9989 12.0188C12.197 12.0197 12.3877 11.9433 12.5303 11.8057C12.6715 11.6657 12.7512 11.4753 12.7521 11.2764C12.7529 11.0776 12.6748 10.8865 12.5347 10.7452L10.5 8.69174V5.21249C10.5 5.01358 10.421 4.82282 10.2803 4.68216C10.1397 4.54151 9.94891 4.46249 9.75 4.46249Z" fill="white"/>
</g>
<defs>
<clipPath id="clip0_337_4651">
<rect width="18" height="18" fill="white"/>
</clipPath>
</defs>
</svg>
