<svg width="32" height="32" viewBox="0 0 32 32" fill="none" xmlns="http://www.w3.org/2000/svg">
<g id="Group">
<path id="Vector" d="M1.44178 17.7172L28.6512 30.6327C28.9126 30.7567 29.2014 30.8121 29.4902 30.7937C29.7789 30.7753 30.0583 30.6838 30.302 30.5276C30.5456 30.3715 30.7455 30.156 30.8829 29.9013C31.0203 29.6466 31.0906 29.3611 31.0872 29.0718L31.0867 29.0228C31.0841 28.794 31.0535 28.5665 30.9955 28.3452L28.2877 17.9867C28.2514 17.8487 28.1738 17.7251 28.0653 17.6325C27.9568 17.5399 27.8225 17.4827 27.6805 17.4685L16.2552 16.3218C16.0651 16.301 15.8892 16.2112 15.7608 16.0695C15.6324 15.9278 15.5603 15.7439 15.5583 15.5527C15.5562 15.3615 15.6243 15.1761 15.7497 15.0317C15.875 14.8872 16.049 14.7938 16.2386 14.7689L27.6367 13.3778C27.7784 13.3606 27.9114 13.3006 28.0179 13.2056C28.1244 13.1107 28.1994 12.9855 28.2327 12.8468L30.7181 2.43412C30.7713 2.21164 30.7971 1.98346 30.7948 1.7547L30.7943 1.70574C30.7912 1.4165 30.7146 1.13278 30.5717 0.881273C30.4289 0.629767 30.2244 0.418735 29.9775 0.268024C29.7306 0.117313 29.4494 0.031874 29.1604 0.0197424C28.8714 0.00761073 28.584 0.0691864 28.3254 0.198677L1.40011 13.6937C1.02513 13.8816 0.710494 14.1711 0.492064 14.5292C0.273634 14.8872 0.160199 15.2995 0.164688 15.7189C0.169178 16.1383 0.291412 16.548 0.517457 16.9013C0.743502 17.2546 1.06286 17.5374 1.44178 17.7172Z" fill="#5C2D91"/>
</g>
</svg>
