<svg width="85" height="85" viewBox="0 0 85 85" fill="none" xmlns="http://www.w3.org/2000/svg">
<g clip-path="url(#clip0_2007_7379)">
<path d="M42.5 85C65.9721 85 85 65.9721 85 42.5C85 19.0279 65.9721 0 42.5 0C19.0279 0 0 19.0279 0 42.5C0 65.9721 19.0279 85 42.5 85Z" fill="#5C2D91" fill-opacity="0.4"/>
<path d="M54.9512 27.5586C54.9512 20.693 49.3656 15.1074 42.5 15.1074C35.6344 15.1074 30.0488 20.693 30.0488 27.5586C30.0488 34.4242 35.6344 40.0098 42.5 40.0098C49.3656 40.0098 54.9512 34.4242 54.9512 27.5586ZM42.5 40.0098C30.142 40.0098 20.0879 50.0638 20.0879 62.4219V64.7557C20.0879 65.4636 20.389 66.138 20.9163 66.6103C26.9822 72.0456 34.6475 75.0391 42.5 75.0391C50.3527 75.0391 58.018 72.0456 64.0837 66.6103C64.3444 66.3767 64.5529 66.0909 64.6956 65.7713C64.8383 65.4518 64.9121 65.1057 64.9121 64.7557V62.4219C64.9121 50.0638 54.858 40.0098 42.5 40.0098Z" fill="white"/>
<circle cx="13.2812" cy="13.2812" r="13.2812" transform="matrix(-1 0 0 1 85 0)" fill="#02C60A"/>
</g>
<defs>
<clipPath id="clip0_2007_7379">
<rect width="85" height="85" fill="white"/>
</clipPath>
</defs>
</svg>
